<svg xmlns="http://www.w3.org/2000/svg" width="114" height="22.712" viewBox="0 0 114 22.712"><path d="M8.916,11.045,5.35,8.4,3.8,7.245l-.138-.1A3.163,3.163,0,0,1,2.439,3.132L8.208,7.415a2.439,2.439,0,0,1,.6.557.75.75,0,0,1,.107.415h0Zm0,3.281a.749.749,0,0,1-.107.415,2.238,2.238,0,0,1-.542.515L2.44,19.58a3.025,3.025,0,0,1,.923-3.647c.108-.095.22-.188.343-.279l3.9-2.9,1.3.966Zm.663-8.575L1.829,0,1.2.925C-.652,3.639-.435,6.783,2.377,8.871l.028.021,1.6,1.191,1.8,1.334-3.382,2.51C-.375,16.005-.66,19.062,1.2,21.788l.631.925L9.6,16.94a3.078,3.078,0,0,0,1.458-2.614l0-5.939h0A3.1,3.1,0,0,0,9.576,5.751Z" transform="translate(0 0)" fill="#3b3b3b" fill-rule="evenodd"/><path d="M30.116,19.579l-5.824-4.323a2.231,2.231,0,0,1-.542-.515.746.746,0,0,1-.106-.415v-.6l1.3-.966,3.9,2.9c.123.091.235.185.343.28a3.024,3.024,0,0,1,.923,3.647ZM23.639,8.386h0a.744.744,0,0,1,.106-.415,2.432,2.432,0,0,1,.6-.557l5.769-4.283A3.163,3.163,0,0,1,28.9,7.142l-5.257,3.9Zm6.491,5.539L26.75,11.415l.714-.531,2.687-1.994.027-.021c2.813-2.087,3.03-5.231,1.18-7.945L30.728,0,22.981,5.75a3.093,3.093,0,0,0-1.486,2.636h0l0,5.939a3.078,3.078,0,0,0,1.458,2.614l7.776,5.772.63-.925c1.858-2.726,1.574-5.782-1.227-7.862Z" transform="translate(-8.834)" fill="#3b3b3b" fill-rule="evenodd"/><path d="M60.03,18.255a1.273,1.273,0,0,1-.319.508,1.589,1.589,0,0,1-.587.349,2.752,2.752,0,0,1-.911.13H56.232V16.166H58.2a3.308,3.308,0,0,1,.879.1,1.614,1.614,0,0,1,.594.294,1.146,1.146,0,0,1,.34.464,1.631,1.631,0,0,1,.11.612,1.909,1.909,0,0,1-.1.617Zm-3.8-6.47H57.9a2.421,2.421,0,0,1,1.451.348,1.365,1.365,0,0,1,.464,1.168,1.311,1.311,0,0,1-.514,1.153,2.607,2.607,0,0,1-1.509.363h-1.56ZM59.9,15.346a3.5,3.5,0,0,0,.838-.405,2.532,2.532,0,0,0,.581-.534,2.06,2.06,0,0,0,.337-.631,2.285,2.285,0,0,0,.108-.706,2.966,2.966,0,0,0-.218-1.162,2.16,2.16,0,0,0-.685-.877,3.341,3.341,0,0,0-1.2-.558,6.854,6.854,0,0,0-1.76-.2h-3.62V20.765h3.961a5.232,5.232,0,0,0,1.625-.232,3.546,3.546,0,0,0,1.2-.642,2.7,2.7,0,0,0,.74-.976,2.971,2.971,0,0,0,.254-1.232q0-1.85-2.162-2.337Z" transform="translate(-22.313 -4.224)" fill="#3b3b3b" fill-rule="evenodd"/><path d="M81.872,11.83V10.278H75.257V20.767h6.615v-1.56H77.223V16.241h3.663v-1.5H77.223V11.83Z" transform="translate(-30.935 -4.225)" fill="#3b3b3b" fill-rule="evenodd"/><path d="M99.056,10.284H97.061l-4.12,10.489h1.515a.647.647,0,0,0,.418-.137.691.691,0,0,0,.229-.3l.617-1.686.67-1.833h0l.438-1.193.839-2.281c.062-.161.127-.346.191-.559s.132-.443.2-.69q.1.37.206.686t.193.548l1.276,3.488h0l.818,2.24.468,1.279a.716.716,0,0,0,.236.314.658.658,0,0,0,.418.127h1.508Z" transform="translate(-38.204 -4.227)" fill="#3b3b3b" fill-rule="evenodd"/><path d="M122.6,10.284v6.282a3.4,3.4,0,0,1-.163,1.088,2.327,2.327,0,0,1-.472.827,2.119,2.119,0,0,1-.753.53,2.812,2.812,0,0,1-2.024,0,2.048,2.048,0,0,1-.751-.534,2.376,2.376,0,0,1-.468-.832,3.379,3.379,0,0,1-.164-1.088V10.284h-1.951v6.282a4.826,4.826,0,0,0,.3,1.73,3.835,3.835,0,0,0,2.23,2.27,5.257,5.257,0,0,0,3.627,0,3.958,3.958,0,0,0,1.37-.9,3.917,3.917,0,0,0,.868-1.371,4.838,4.838,0,0,0,.3-1.73V10.284Z" transform="translate(-47.622 -4.227)" fill="#3b3b3b" fill-rule="evenodd"/><path d="M137.419,10.284v1.6h3.169v8.885h1.952V11.888H145.7v-1.6Z" transform="translate(-56.487 -4.227)" fill="#3b3b3b" fill-rule="evenodd"/><path d="M158.911,20.773h1.958V10.284h-1.958Z" transform="translate(-65.322 -4.227)" fill="#3b3b3b" fill-rule="evenodd"/><path d="M177.782,11.83V10.278h-6.614V20.767h1.965V16.494h3.924v-1.56h-3.924v-3.1Z" transform="translate(-70.36 -4.225)" fill="#3b3b3b" fill-rule="evenodd"/><path d="M190.33,20.773h1.907V10.284H190.33Z" transform="translate(-78.237 -4.227)" fill="#3b3b3b" fill-rule="evenodd"/></svg>